# xmcd CD database file
#
# Track frame offsets:
#	150
#	28731
#	43868
#	61169
#	94582
#	118562
#	148440
#	176114
#	204284
#	216459
#	242840
#
# Disc length: 3679 seconds
#
# Revision: 0
# Processed by: cddbd v1.4PL0 Copyright (c) Steve Scherf et al.
# Submitted via: CDex 1.50Beta7
#
DISCID=a70e5d0b
DTITLE=Téli Márta , Winand Gábor - Folow Your Dreams
DYEAR=1900
DGENRE=Jazz
TTITLE0=Don't Go  Srangers
TTITLE1=The Island
TTITLE2=What Is This Thing Called Love
TTITLE3=Easy Living
TTITLE4=500 Miles High
TTITLE5=Saga Of Harrison Crabfeathers
TTITLE6=Just The 2 Of Us
TTITLE7=What Are You Doing The Rest Of Your Life
TTITLE8=I Love You
TTITLE9=I Can't Get Started
TTITLE10=Spain
EXTD=
EXTT0=
EXTT1=
EXTT2=
EXTT3=
EXTT4=
EXTT5=
EXTT6=
EXTT7=
EXTT8=
EXTT9=
EXTT10=
PLAYORDER=
